<?xml version="1.0" encoding="utf-8"?>
<svg xmlns="http://www.w3.org/2000/svg">
	<path d="M0 175c52.337.688 104.674 1.376 155 0 50.326-1.376 98.64-4.816 150-4 51.36.816 105.766 5.887 157 4 51.234-1.887 99.297-10.733 150-9 50.703 1.733 104.045 14.046 156 15 51.955.954 102.523-9.452 155-12 52.477-2.548 106.863 2.76 157 5s96.024 1.41 147 0 107.04-3.398 159-2c51.96 1.398 99.818 6.184 151 5 51.182-1.184 105.688-8.338 156-7 50.312 1.338 96.43 11.168 153 12 56.57.832 123.591-7.334 151-10 27.409-2.666 15.204.167 43 3l-40 1225H0Z" fill="#89D5FD"></path>
</svg>	