<?xml version="1.0" encoding="utf-8"?>

<svg xmlns="http://www.w3.org/2000/svg" viewbox="0 0 2040 -18" height="185px" view="0 0 2040 -18">
	<path d="m 0 175 c 52.337 0.688 104.674 1.376 155 0 c 50.326 -1.376 98.64 -4.816 150 -4 c 51.36 0.816 105.766 5.887 157 4 c 51.234 -1.887 99.297 -10.733 150 -9 c 50.703 1.733 104.045 14.046 156 15 c 51.955 0.954 102.523 -9.452 155 -12 c 52.477 -2.548 106.863 2.76 157 5 s 96.024 1.41 147 0 s 107.04 -3.398 159 -2 c 51.96 1.398 99.818 6.184 151 5 c 51.182 -1.184 105.688 -8.338 156 -7 c 50.312 1.338 96.43 11.168 153 12 c 56.57 0.832 123.591 -7.334 151 -10 c 27.409 -2.666 15.204 0.167 43 3 l 0 12 h -2040 z" fill="#d4ebff"/>
</svg>