<svg xmlns="http://www.w3.org/2000/svg" version="1.1" xmlns:xlink="http://www.w3.org/1999/xlink" xmlns:svgjs="http://svgjs.dev/svgjs" viewBox="0 0 800 800"><defs><radialGradient id="ccclaymoji-grad-dark" r="93%" cx="20%" cy="20%">
      <stop offset="70%" stop-color="hsl(158, 49%, 67%)" stop-opacity="0"></stop>
      <stop offset="97%" stop-color="#51a286" stop-opacity="1"></stop>
    </radialGradient><radialGradient id="ccclaymoji-grad-light" r="65%" cx="28%" cy="20%">
    <stop offset="0%" stop-color="#b4ffe8" stop-opacity="0.75"></stop>
    <stop offset="100%" stop-color="hsl(158, 49%, 67%)" stop-opacity="0"></stop>
  </radialGradient><filter id="ccclaymoji-blur" x="-100%" y="-100%" width="400%" height="400%" filterUnits="objectBoundingBox" primitiveUnits="userSpaceOnUse" color-interpolation-filters="sRGB">
	<feGaussianBlur stdDeviation="20" x="0%" y="0%" width="100%" height="100%" in="SourceGraphic" edgeMode="none" result="blur"></feGaussianBlur></filter><filter id="inner-blur" x="-100%" y="-100%" width="400%" height="400%" filterUnits="objectBoundingBox" primitiveUnits="userSpaceOnUse" color-interpolation-filters="sRGB">
	<feGaussianBlur stdDeviation="2" x="0%" y="0%" width="100%" height="100%" in="SourceGraphic" edgeMode="none" result="blur"></feGaussianBlur></filter><filter id="eye-shadow" x="-100%" y="-100%" width="400%" height="400%" filterUnits="objectBoundingBox" primitiveUnits="userSpaceOnUse" color-interpolation-filters="sRGB">
	<feDropShadow stdDeviation="10" dx="10" dy="10" flood-color="#000000" flood-opacity="0.2" x="0%" y="0%" width="100%" height="100%" result="dropShadow"></feDropShadow>
</filter><linearGradient id="eye-light" x1="50%" y1="0%" x2="50%" y2="100%">
      <stop offset="0%" stop-color="#555555" stop-opacity="1"></stop>
      <stop offset="100%" stop-color="black" stop-opacity="0"></stop>
    </linearGradient><linearGradient id="mouth-light" x1="50%" y1="0%" x2="50%" y2="100%">
    <stop offset="0%" stop-color="#ff885e" stop-opacity="1"></stop>
    <stop offset="100%" stop-color="hsla(3, 99%, 41%, 1.00)" stop-opacity="0"></stop>
  </linearGradient><filter id="mouth-shadow" x="-100%" y="-100%" width="400%" height="400%" filterUnits="objectBoundingBox" primitiveUnits="userSpaceOnUse" color-interpolation-filters="sRGB">
	<feDropShadow stdDeviation="10" dx="10" dy="10" flood-color="#960000" flood-opacity="0.2" x="0%" y="0%" width="100%" height="100%" result="dropShadow"></feDropShadow>
</filter></defs><g stroke-linecap="round"><path d="M700.5000305175781 449.0000057580337C700.5000305175781 639.58594915426 579.5859739138045 794.0849114184111 389.0000305175781 794.0849114184111C198.41492674399322 794.0849114184111 77.50003051757812 639.58594915426 77.50003051757812 449.0000057580337C77.50003051757812 258.4149019844487 198.41492674399322 103.91510009765625 389.0000305175781 103.91510009765625C579.5859739138045 103.91510009765625 700.5000305175781 258.4149019844487 700.5000305175781 449.0000057580337Z " fill="#51a286" opacity="0.46" filter="url(#ccclaymoji-blur)"></path><path d="M711.5 400.00001034641537C711.5 601.4455516569567 601.4455413105413 693.7507225971276 400 693.7507225971276C198.55534615384616 693.7507225971276 88.5 601.4455516569567 88.5 400.00001034641537C88.5 198.55535650026152 198.55534615384616 106.24929809570312 400 106.24929809570312C601.4455413105413 106.24929809570312 711.5 198.55535650026152 711.5 400.00001034641537Z " fill="hsl(158, 49%, 67%)"></path><path d="M711.5 400.00001034641537C711.5 601.4455516569567 601.4455413105413 693.7507225971276 400 693.7507225971276C198.55534615384616 693.7507225971276 88.5 601.4455516569567 88.5 400.00001034641537C88.5 198.55535650026152 198.55534615384616 106.24929809570312 400 106.24929809570312C601.4455413105413 106.24929809570312 711.5 198.55535650026152 711.5 400.00001034641537Z " fill="url(#ccclaymoji-grad-dark)"></path><path d="M711.5 400.00001034641537C711.5 601.4455516569567 601.4455413105413 693.7507225971276 400 693.7507225971276C198.55534615384616 693.7507225971276 88.5 601.4455516569567 88.5 400.00001034641537C88.5 198.55535650026152 198.55534615384616 106.24929809570312 400 106.24929809570312C601.4455413105413 106.24929809570312 711.5 198.55535650026152 711.5 400.00001034641537Z " fill="url(#ccclaymoji-grad-light)"></path><path d="M234.5 375.25Q287.5 422.25 345.5 375.25 " stroke-width="19" stroke="black" fill="none" filter="url(#eye-shadow)"></path><path d="M234.5 375.25Q287.5 422.25 345.5 375.25 " stroke-width="6.333333333333333" stroke="url(#eye-light)" fill="none" filter="url(#inner-blur)"></path><path d="M442.5 377.25Q501.5 428.25 553.5 377.25 " stroke-width="19" stroke="black" fill="none" filter="url(#eye-shadow)"></path><path d="M442.5 377.25Q501.5 428.25 553.5 377.25 " stroke-width="6.333333333333333" stroke="url(#eye-light)" fill="none" filter="url(#inner-blur)"></path><path d="M347.5 517.25Q397.5 548.25 452.5 517.25 " stroke-width="19" stroke="hsla(3, 99%, 41%, 1.00)" fill="none" filter="url(#mouth-shadow)"></path><path d="M347.5 517.25Q397.5 548.25 452.5 517.25 " stroke-width="6.333333333333333" stroke="url(#mouth-light)" fill="none" filter="url(#inner-blur)"></path></g></svg>