<svg xmlns="http://www.w3.org/2000/svg" version="1.1" xmlns:xlink="http://www.w3.org/1999/xlink" xmlns:svgjs="http://svgjs.dev/svgjs" viewBox="0 0 800 800"><defs><radialGradient id="ccclaymoji-grad-dark" r="93%" cx="20%" cy="20%">
      <stop offset="70%" stop-color="hsl(158, 49%, 67%)" stop-opacity="0"></stop>
      <stop offset="97%" stop-color="#51a286" stop-opacity="1"></stop>
    </radialGradient><radialGradient id="ccclaymoji-grad-light" r="65%" cx="28%" cy="20%">
    <stop offset="0%" stop-color="#b4ffe8" stop-opacity="0.75"></stop>
    <stop offset="100%" stop-color="hsl(158, 49%, 67%)" stop-opacity="0"></stop>
  </radialGradient><filter id="ccclaymoji-blur" x="-100%" y="-100%" width="400%" height="400%" filterUnits="objectBoundingBox" primitiveUnits="userSpaceOnUse" color-interpolation-filters="sRGB">
	<feGaussianBlur stdDeviation="20" x="0%" y="0%" width="100%" height="100%" in="SourceGraphic" edgeMode="none" result="blur"></feGaussianBlur></filter><filter id="inner-blur" x="-100%" y="-100%" width="400%" height="400%" filterUnits="objectBoundingBox" primitiveUnits="userSpaceOnUse" color-interpolation-filters="sRGB">
	<feGaussianBlur stdDeviation="2" x="0%" y="0%" width="100%" height="100%" in="SourceGraphic" edgeMode="none" result="blur"></feGaussianBlur></filter><filter id="eye-shadow" x="-100%" y="-100%" width="400%" height="400%" filterUnits="objectBoundingBox" primitiveUnits="userSpaceOnUse" color-interpolation-filters="sRGB">
	<feDropShadow stdDeviation="10" dx="10" dy="10" flood-color="#000000" flood-opacity="0.2" x="0%" y="0%" width="100%" height="100%" result="dropShadow"></feDropShadow>
</filter><linearGradient id="eye-light" x1="50%" y1="0%" x2="50%" y2="100%">
      <stop offset="0%" stop-color="#555555" stop-opacity="1"></stop>
      <stop offset="100%" stop-color="black" stop-opacity="0"></stop>
    </linearGradient><linearGradient id="mouth-light" x1="50%" y1="0%" x2="50%" y2="100%">
    <stop offset="0%" stop-color="#ff885e" stop-opacity="1"></stop>
    <stop offset="100%" stop-color="hsla(3, 99%, 41%, 1.00)" stop-opacity="0"></stop>
  </linearGradient><filter id="mouth-shadow" x="-100%" y="-100%" width="400%" height="400%" filterUnits="objectBoundingBox" primitiveUnits="userSpaceOnUse" color-interpolation-filters="sRGB">
	<feDropShadow stdDeviation="10" dx="10" dy="10" flood-color="#960000" flood-opacity="0.2" x="0%" y="0%" width="100%" height="100%" result="dropShadow"></feDropShadow>
</filter></defs><g stroke-linecap="round"><path d="M670.5 449.00000148063725C670.5 621.2309583539527 561.2309568733153 760.8504057933058 389 760.8504057933058C216.76980188679244 760.8504057933058 107.5 621.2309583539527 107.5 449.00000148063725C107.5 276.7698033674297 216.76980188679244 137.14959716796875 389 137.14959716796875C561.2309568733153 137.14959716796875 670.5 276.7698033674297 670.5 449.00000148063725Z " fill="#51a286" opacity="0.41" filter="url(#ccclaymoji-blur)"></path><path d="M681.5 399.99999869583C681.5 582.0446853055166 582.0446866096866 729.6196568154882 400 729.6196568154882C217.95611538461537 729.6196568154882 118.5 582.0446853055166 118.5 399.99999869583C118.5 217.9561140804454 217.95611538461537 70.38034057617188 400 70.38034057617188C582.0446866096866 70.38034057617188 681.5 217.9561140804454 681.5 399.99999869583Z " fill="hsl(158, 49%, 67%)"></path><path d="M681.5 399.99999869583C681.5 582.0446853055166 582.0446866096866 729.6196568154882 400 729.6196568154882C217.95611538461537 729.6196568154882 118.5 582.0446853055166 118.5 399.99999869583C118.5 217.9561140804454 217.95611538461537 70.38034057617188 400 70.38034057617188C582.0446866096866 70.38034057617188 681.5 217.9561140804454 681.5 399.99999869583Z " fill="url(#ccclaymoji-grad-dark)"></path><path d="M681.5 399.99999869583C681.5 582.0446853055166 582.0446866096866 729.6196568154882 400 729.6196568154882C217.95611538461537 729.6196568154882 118.5 582.0446853055166 118.5 399.99999869583C118.5 217.9561140804454 217.95611538461537 70.38034057617188 400 70.38034057617188C582.0446866096866 70.38034057617188 681.5 217.9561140804454 681.5 399.99999869583Z " fill="url(#ccclaymoji-grad-light)"></path><path d="M234.5 375.25Q287.5 422.25 345.5 375.25 " stroke-width="19" stroke="black" fill="none" filter="url(#eye-shadow)"></path><path d="M234.5 375.25Q287.5 422.25 345.5 375.25 " stroke-width="6.333333333333333" stroke="url(#eye-light)" fill="none" filter="url(#inner-blur)"></path><path d="M442.5 377.25Q501.5 428.25 553.5 377.25 " stroke-width="19" stroke="black" fill="none" filter="url(#eye-shadow)"></path><path d="M442.5 377.25Q501.5 428.25 553.5 377.25 " stroke-width="6.333333333333333" stroke="url(#eye-light)" fill="none" filter="url(#inner-blur)"></path><path d="M347.5 517.25Q397.5 548.25 452.5 517.25 " stroke-width="19" stroke="hsla(3, 99%, 41%, 1.00)" fill="none" filter="url(#mouth-shadow)"></path><path d="M347.5 517.25Q397.5 548.25 452.5 517.25 " stroke-width="6.333333333333333" stroke="url(#mouth-light)" fill="none" filter="url(#inner-blur)"></path></g></svg>