<svg xmlns="http://www.w3.org/2000/svg" version="1.1" xmlns:xlink="http://www.w3.org/1999/xlink" xmlns:svgjs="http://svgjs.dev/svgjs" viewBox="0 0 800 800"><defs><radialGradient id="ccclaymoji-grad-dark" r="93%" cx="20%" cy="20%">
      <stop offset="70%" stop-color="hsl(230, 53%, 57%)" stop-opacity="0"></stop>
      <stop offset="97%" stop-color="#194199" stop-opacity="1"></stop>
    </radialGradient><radialGradient id="ccclaymoji-grad-light" r="65%" cx="28%" cy="20%">
    <stop offset="0%" stop-color="#8b99ff" stop-opacity="0.75"></stop>
    <stop offset="100%" stop-color="hsl(230, 53%, 57%)" stop-opacity="0"></stop>
  </radialGradient><filter id="ccclaymoji-blur" x="-100%" y="-100%" width="400%" height="400%" filterUnits="objectBoundingBox" primitiveUnits="userSpaceOnUse" color-interpolation-filters="sRGB">
	<feGaussianBlur stdDeviation="20" x="0%" y="0%" width="100%" height="100%" in="SourceGraphic" edgeMode="none" result="blur"></feGaussianBlur></filter><filter id="inner-blur" x="-100%" y="-100%" width="400%" height="400%" filterUnits="objectBoundingBox" primitiveUnits="userSpaceOnUse" color-interpolation-filters="sRGB">
	<feGaussianBlur stdDeviation="2" x="0%" y="0%" width="100%" height="100%" in="SourceGraphic" edgeMode="none" result="blur"></feGaussianBlur></filter><filter id="eye-shadow" x="-100%" y="-100%" width="400%" height="400%" filterUnits="objectBoundingBox" primitiveUnits="userSpaceOnUse" color-interpolation-filters="sRGB">
	<feDropShadow stdDeviation="10" dx="10" dy="10" flood-color="#000000" flood-opacity="0.2" x="0%" y="0%" width="100%" height="100%" result="dropShadow"></feDropShadow>
</filter><linearGradient id="eye-light" x1="50%" y1="0%" x2="50%" y2="100%">
      <stop offset="0%" stop-color="#555555" stop-opacity="1"></stop>
      <stop offset="100%" stop-color="black" stop-opacity="0"></stop>
    </linearGradient><linearGradient id="mouth-light" x1="50%" y1="0%" x2="50%" y2="100%">
    <stop offset="0%" stop-color="#ff885e" stop-opacity="1"></stop>
    <stop offset="100%" stop-color="hsla(3, 99%, 41%, 1.00)" stop-opacity="0"></stop>
  </linearGradient><filter id="mouth-shadow" x="-100%" y="-100%" width="400%" height="400%" filterUnits="objectBoundingBox" primitiveUnits="userSpaceOnUse" color-interpolation-filters="sRGB">
	<feDropShadow stdDeviation="10" dx="10" dy="10" flood-color="#960000" flood-opacity="0.2" x="0%" y="0%" width="100%" height="100%" result="dropShadow"></feDropShadow>
</filter></defs><g stroke-linecap="round"><path d="M739 449.0000092128538C739 663.141518646816 603.1415094339623 836.7358582694576 389 836.7358582694576C174.85943396226415 836.7358582694576 39 663.141518646816 39 449.0000092128538C39 234.85944317511792 174.85943396226415 61.26416015625 389 61.26416015625C603.1415094339623 61.26416015625 739 234.85944317511792 739 449.0000092128538Z " fill="#194199" opacity="0.63" filter="url(#ccclaymoji-blur)"></path><path d="M750.0000305175781 399.99996574380117C750.0000305175781 626.343270587106 626.343335360883 769.9429856868211 400.0000305175781 769.9429856868211C173.6577228252704 769.9429856868211 50.000030517578125 626.343270587106 50.000030517578125 399.99996574380117C50.000030517578125 173.65765805149348 173.6577228252704 30.05694580078125 400.0000305175781 30.05694580078125C626.343335360883 30.05694580078125 750.0000305175781 173.65765805149348 750.0000305175781 399.99996574380117Z " fill="hsl(230, 53%, 57%)"></path><path d="M750.0000305175781 399.99996574380117C750.0000305175781 626.343270587106 626.343335360883 769.9429856868211 400.0000305175781 769.9429856868211C173.6577228252704 769.9429856868211 50.000030517578125 626.343270587106 50.000030517578125 399.99996574380117C50.000030517578125 173.65765805149348 173.6577228252704 30.05694580078125 400.0000305175781 30.05694580078125C626.343335360883 30.05694580078125 750.0000305175781 173.65765805149348 750.0000305175781 399.99996574380117Z " fill="url(#ccclaymoji-grad-dark)"></path><path d="M750.0000305175781 399.99996574380117C750.0000305175781 626.343270587106 626.343335360883 769.9429856868211 400.0000305175781 769.9429856868211C173.6577228252704 769.9429856868211 50.000030517578125 626.343270587106 50.000030517578125 399.99996574380117C50.000030517578125 173.65765805149348 173.6577228252704 30.05694580078125 400.0000305175781 30.05694580078125C626.343335360883 30.05694580078125 750.0000305175781 173.65765805149348 750.0000305175781 399.99996574380117Z " fill="url(#ccclaymoji-grad-light)"></path><path d="M234.5 375.25Q287.5 422.25 345.5 375.25 " stroke-width="19" stroke="black" fill="none" filter="url(#eye-shadow)"></path><path d="M234.5 375.25Q287.5 422.25 345.5 375.25 " stroke-width="6.333333333333333" stroke="url(#eye-light)" fill="none" filter="url(#inner-blur)"></path><path d="M442.5 377.25Q501.5 428.25 553.5 377.25 " stroke-width="19" stroke="black" fill="none" filter="url(#eye-shadow)"></path><path d="M442.5 377.25Q501.5 428.25 553.5 377.25 " stroke-width="6.333333333333333" stroke="url(#eye-light)" fill="none" filter="url(#inner-blur)"></path><path d="M347.5 517.25Q397.5 548.25 452.5 517.25 " stroke-width="19" stroke="hsla(3, 99%, 41%, 1.00)" fill="none" filter="url(#mouth-shadow)"></path><path d="M347.5 517.25Q397.5 548.25 452.5 517.25 " stroke-width="6.333333333333333" stroke="url(#mouth-light)" fill="none" filter="url(#inner-blur)"></path></g></svg>