<svg xmlns="http://www.w3.org/2000/svg" version="1.1" xmlns:xlink="http://www.w3.org/1999/xlink" xmlns:svgjs="http://svgjs.dev/svgjs" viewBox="0 0 800 800"><defs><radialGradient id="ccclaymoji-grad-dark" r="93%" cx="20%" cy="20%">
      <stop offset="70%" stop-color="hsl(50, 65%, 76%)" stop-opacity="0"></stop>
      <stop offset="97%" stop-color="#b7aa6b" stop-opacity="1"></stop>
    </radialGradient><radialGradient id="ccclaymoji-grad-light" r="65%" cx="28%" cy="20%">
    <stop offset="0%" stop-color="#ffffcb" stop-opacity="0.75"></stop>
    <stop offset="100%" stop-color="hsl(50, 65%, 76%)" stop-opacity="0"></stop>
  </radialGradient><filter id="ccclaymoji-blur" x="-100%" y="-100%" width="400%" height="400%" filterUnits="objectBoundingBox" primitiveUnits="userSpaceOnUse" color-interpolation-filters="sRGB">
	<feGaussianBlur stdDeviation="20" x="0%" y="0%" width="100%" height="100%" in="SourceGraphic" edgeMode="none" result="blur"></feGaussianBlur></filter><filter id="inner-blur" x="-100%" y="-100%" width="400%" height="400%" filterUnits="objectBoundingBox" primitiveUnits="userSpaceOnUse" color-interpolation-filters="sRGB">
	<feGaussianBlur stdDeviation="2" x="0%" y="0%" width="100%" height="100%" in="SourceGraphic" edgeMode="none" result="blur"></feGaussianBlur></filter><filter id="eye-shadow" x="-100%" y="-100%" width="400%" height="400%" filterUnits="objectBoundingBox" primitiveUnits="userSpaceOnUse" color-interpolation-filters="sRGB">
	<feDropShadow stdDeviation="10" dx="10" dy="10" flood-color="#0b2800" flood-opacity="0.2" x="0%" y="0%" width="100%" height="100%" result="dropShadow"></feDropShadow>
</filter><linearGradient id="eye-light" x1="50%" y1="0%" x2="50%" y2="100%">
      <stop offset="0%" stop-color="#85ad5c" stop-opacity="1"></stop>
      <stop offset="100%" stop-color="hsla(90, 98%, 16%, 1.00)" stop-opacity="0"></stop>
    </linearGradient><linearGradient id="mouth-light" x1="50%" y1="0%" x2="50%" y2="100%">
    <stop offset="0%" stop-color="#ffc3ff" stop-opacity="1"></stop>
    <stop offset="100%" stop-color="hsla(290, 71%, 63%, 1.00)" stop-opacity="0"></stop>
  </linearGradient><filter id="mouth-shadow" x="-100%" y="-100%" width="400%" height="400%" filterUnits="objectBoundingBox" primitiveUnits="userSpaceOnUse" color-interpolation-filters="sRGB">
	<feDropShadow stdDeviation="10" dx="10" dy="10" flood-color="#992ab1" flood-opacity="0.2" x="0%" y="0%" width="100%" height="100%" result="dropShadow"></feDropShadow>
</filter></defs><g stroke-linecap="round"><path d="M650.0000305175781 448.9999944887393C650.0000305175781 608.6883772380654 548.6884132669043 738.1401562138067 389.0000305175781 738.1401562138067C229.3123512722951 738.1401562138067 128.00003051757812 608.6883772380654 128.00003051757812 448.9999944887393C128.00003051757812 289.3123152434562 229.3123512722951 159.85983276367188 389.0000305175781 159.85983276367188C548.6884132669043 159.85983276367188 650.0000305175781 289.3123152434562 650.0000305175781 448.9999944887393Z " fill="#b7aa6b" opacity="0.41" filter="url(#ccclaymoji-blur)"></path><path d="M661.0000305175781 399.9999944887393C661.0000305175781 559.6883772380654 559.6884132669043 689.1401562138067 400.0000305175781 689.1401562138067C240.3123512722951 689.1401562138067 139.00003051757812 559.6883772380654 139.00003051757812 399.9999944887393C139.00003051757812 240.31231524345623 240.3123512722951 110.85983276367188 400.0000305175781 110.85983276367188C559.6884132669043 110.85983276367188 661.0000305175781 240.31231524345623 661.0000305175781 399.9999944887393Z " fill="hsl(50, 65%, 76%)"></path><path d="M661.0000305175781 399.9999944887393C661.0000305175781 559.6883772380654 559.6884132669043 689.1401562138067 400.0000305175781 689.1401562138067C240.3123512722951 689.1401562138067 139.00003051757812 559.6883772380654 139.00003051757812 399.9999944887393C139.00003051757812 240.31231524345623 240.3123512722951 110.85983276367188 400.0000305175781 110.85983276367188C559.6884132669043 110.85983276367188 661.0000305175781 240.31231524345623 661.0000305175781 399.9999944887393Z " fill="url(#ccclaymoji-grad-dark)"></path><path d="M661.0000305175781 399.9999944887393C661.0000305175781 559.6883772380654 559.6884132669043 689.1401562138067 400.0000305175781 689.1401562138067C240.3123512722951 689.1401562138067 139.00003051757812 559.6883772380654 139.00003051757812 399.9999944887393C139.00003051757812 240.31231524345623 240.3123512722951 110.85983276367188 400.0000305175781 110.85983276367188C559.6884132669043 110.85983276367188 661.0000305175781 240.31231524345623 661.0000305175781 399.9999944887393Z " fill="url(#ccclaymoji-grad-light)"></path><path d="M234.5 378.25Q287.5 425.25 345.5 378.25 " stroke-width="19" stroke="hsla(90, 98%, 16%, 1.00)" fill="none" filter="url(#eye-shadow)"></path><path d="M234.5 378.25Q287.5 425.25 345.5 378.25 " stroke-width="6.333333333333333" stroke="url(#eye-light)" fill="none" filter="url(#inner-blur)"></path><path d="M442.5 378.25Q501.5 429.25 553.5 378.25 " stroke-width="19" stroke="hsla(90, 98%, 16%, 1.00)" fill="none" filter="url(#eye-shadow)"></path><path d="M442.5 378.25Q501.5 429.25 553.5 378.25 " stroke-width="6.333333333333333" stroke="url(#eye-light)" fill="none" filter="url(#inner-blur)"></path><path d="M347.5 513.25Q397.5 544.25 452.5 513.25 " stroke-width="19" stroke="hsla(290, 71%, 63%, 1.00)" fill="none" filter="url(#mouth-shadow)"></path><path d="M347.5 513.25Q397.5 544.25 452.5 513.25 " stroke-width="6.333333333333333" stroke="url(#mouth-light)" fill="none" filter="url(#inner-blur)"></path></g></svg>