<svg xmlns="http://www.w3.org/2000/svg" version="1.1" xmlns:xlink="http://www.w3.org/1999/xlink" xmlns:svgjs="http://svgjs.dev/svgjs" viewBox="0 0 800 800"><defs><radialGradient id="ccclaymoji-grad-dark" r="93%" cx="20%" cy="20%">
      <stop offset="70%" stop-color="hsl(341, 100%, 85%)" stop-opacity="0"></stop>
      <stop offset="97%" stop-color="#cb839a" stop-opacity="1"></stop>
    </radialGradient><radialGradient id="ccclaymoji-grad-light" r="65%" cx="28%" cy="20%">
    <stop offset="0%" stop-color="#ffe6fe" stop-opacity="0.75"></stop>
    <stop offset="100%" stop-color="hsl(341, 100%, 85%)" stop-opacity="0"></stop>
  </radialGradient><filter id="ccclaymoji-blur" x="-100%" y="-100%" width="400%" height="400%" filterUnits="objectBoundingBox" primitiveUnits="userSpaceOnUse" color-interpolation-filters="sRGB">
	<feGaussianBlur stdDeviation="20" x="0%" y="0%" width="100%" height="100%" in="SourceGraphic" edgeMode="none" result="blur"></feGaussianBlur></filter><filter id="inner-blur" x="-100%" y="-100%" width="400%" height="400%" filterUnits="objectBoundingBox" primitiveUnits="userSpaceOnUse" color-interpolation-filters="sRGB">
	<feGaussianBlur stdDeviation="2" x="0%" y="0%" width="100%" height="100%" in="SourceGraphic" edgeMode="none" result="blur"></feGaussianBlur></filter><filter id="eye-shadow" x="-100%" y="-100%" width="400%" height="400%" filterUnits="objectBoundingBox" primitiveUnits="userSpaceOnUse" color-interpolation-filters="sRGB">
	<feDropShadow stdDeviation="10" dx="10" dy="10" flood-color="#000000" flood-opacity="0.2" x="0%" y="0%" width="100%" height="100%" result="dropShadow"></feDropShadow>
</filter><linearGradient id="eye-light" x1="50%" y1="0%" x2="50%" y2="100%">
      <stop offset="0%" stop-color="#555555" stop-opacity="1"></stop>
      <stop offset="100%" stop-color="black" stop-opacity="0"></stop>
    </linearGradient><linearGradient id="mouth-light" x1="50%" y1="0%" x2="50%" y2="100%">
    <stop offset="0%" stop-color="#ff885e" stop-opacity="1"></stop>
    <stop offset="100%" stop-color="hsla(3, 99%, 41%, 1.00)" stop-opacity="0"></stop>
  </linearGradient><filter id="mouth-shadow" x="-100%" y="-100%" width="400%" height="400%" filterUnits="objectBoundingBox" primitiveUnits="userSpaceOnUse" color-interpolation-filters="sRGB">
	<feDropShadow stdDeviation="10" dx="10" dy="10" flood-color="#960000" flood-opacity="0.2" x="0%" y="0%" width="100%" height="100%" result="dropShadow"></feDropShadow>
</filter></defs><g stroke-linecap="round"><path d="M586 448.9999935016478C586 569.5310716687636 509.5310781671159 667.2398856849362 389 667.2398856849362C268.4694528301887 667.2398856849362 192 569.5310716687636 192 448.9999935016478C192 328.4694463318365 268.4694528301887 230.76010131835938 389 230.76010131835938C509.5310781671159 230.76010131835938 586 328.4694463318365 586 448.9999935016478Z " fill="#cb839a" opacity="0.46" filter="url(#ccclaymoji-blur)"></path><path d="M597 399.999997000409C597 527.3989428693549 527.3989458689459 630.6752106756227 400 630.6752106756227C272.60161538461534 630.6752106756227 203 527.3989428693549 203 399.999997000409C203 272.6016123850244 272.60161538461534 169.3247833251953 400 169.3247833251953C527.3989458689459 169.3247833251953 597 272.6016123850244 597 399.999997000409Z " fill="hsl(341, 100%, 85%)"></path><path d="M597 399.999997000409C597 527.3989428693549 527.3989458689459 630.6752106756227 400 630.6752106756227C272.60161538461534 630.6752106756227 203 527.3989428693549 203 399.999997000409C203 272.6016123850244 272.60161538461534 169.3247833251953 400 169.3247833251953C527.3989458689459 169.3247833251953 597 272.6016123850244 597 399.999997000409Z " fill="url(#ccclaymoji-grad-dark)"></path><path d="M597 399.999997000409C597 527.3989428693549 527.3989458689459 630.6752106756227 400 630.6752106756227C272.60161538461534 630.6752106756227 203 527.3989428693549 203 399.999997000409C203 272.6016123850244 272.60161538461534 169.3247833251953 400 169.3247833251953C527.3989458689459 169.3247833251953 597 272.6016123850244 597 399.999997000409Z " fill="url(#ccclaymoji-grad-light)"></path><path d="M234.5 375.25Q287.5 422.25 345.5 375.25 " stroke-width="19" stroke="black" fill="none" filter="url(#eye-shadow)"></path><path d="M234.5 375.25Q287.5 422.25 345.5 375.25 " stroke-width="6.333333333333333" stroke="url(#eye-light)" fill="none" filter="url(#inner-blur)"></path><path d="M442.5 377.25Q501.5 428.25 553.5 377.25 " stroke-width="19" stroke="black" fill="none" filter="url(#eye-shadow)"></path><path d="M442.5 377.25Q501.5 428.25 553.5 377.25 " stroke-width="6.333333333333333" stroke="url(#eye-light)" fill="none" filter="url(#inner-blur)"></path><path d="M347.5 517.25Q397.5 548.25 452.5 517.25 " stroke-width="19" stroke="hsla(3, 99%, 41%, 1.00)" fill="none" filter="url(#mouth-shadow)"></path><path d="M347.5 517.25Q397.5 548.25 452.5 517.25 " stroke-width="6.333333333333333" stroke="url(#mouth-light)" fill="none" filter="url(#inner-blur)"></path></g></svg>