<svg xmlns="http://www.w3.org/2000/svg" version="1.1" xmlns:xlink="http://www.w3.org/1999/xlink" xmlns:svgjs="http://svgjs.dev/svgjs" viewBox="0 0 800 800"><defs><radialGradient id="ccclaymoji-grad-dark" r="93%" cx="20%" cy="20%">
      <stop offset="70%" stop-color="hsl(50, 98%, 50%)" stop-opacity="0"></stop>
      <stop offset="97%" stop-color="#c4a200" stop-opacity="1"></stop>
    </radialGradient><radialGradient id="ccclaymoji-grad-light" r="65%" cx="28%" cy="20%">
    <stop offset="0%" stop-color="#ffff52" stop-opacity="0.75"></stop>
    <stop offset="100%" stop-color="hsl(50, 98%, 50%)" stop-opacity="0"></stop>
  </radialGradient><filter id="ccclaymoji-blur" x="-100%" y="-100%" width="400%" height="400%" filterUnits="objectBoundingBox" primitiveUnits="userSpaceOnUse" color-interpolation-filters="sRGB">
  <feGaussianBlur stdDeviation="20" x="0%" y="0%" width="100%" height="100%" in="SourceGraphic" edgeMode="none" result="blur"></feGaussianBlur></filter><filter id="inner-blur" x="-100%" y="-100%" width="400%" height="400%" filterUnits="objectBoundingBox" primitiveUnits="userSpaceOnUse" color-interpolation-filters="sRGB">
  <feGaussianBlur stdDeviation="2" x="0%" y="0%" width="100%" height="100%" in="SourceGraphic" edgeMode="none" result="blur"></feGaussianBlur></filter><filter id="eye-shadow" x="-100%" y="-100%" width="400%" height="400%" filterUnits="objectBoundingBox" primitiveUnits="userSpaceOnUse" color-interpolation-filters="sRGB">
  <feDropShadow stdDeviation="10" dx="10" dy="10" flood-color="#000000" flood-opacity="0.2" x="0%" y="0%" width="100%" height="100%" result="dropShadow"></feDropShadow>
</filter><linearGradient id="eye-light" x1="50%" y1="0%" x2="50%" y2="100%">
      <stop offset="0%" stop-color="#555555" stop-opacity="1"></stop>
      <stop offset="100%" stop-color="black" stop-opacity="0"></stop>
    </linearGradient><linearGradient id="mouth-light" x1="50%" y1="0%" x2="50%" y2="100%">
    <stop offset="0%" stop-color="#ff885e" stop-opacity="1"></stop>
    <stop offset="100%" stop-color="hsla(3, 99%, 41%, 1.00)" stop-opacity="0"></stop>
  </linearGradient><filter id="mouth-shadow" x="-100%" y="-100%" width="400%" height="400%" filterUnits="objectBoundingBox" primitiveUnits="userSpaceOnUse" color-interpolation-filters="sRGB">
  <feDropShadow stdDeviation="10" dx="10" dy="10" flood-color="#960000" flood-opacity="0.2" x="0%" y="0%" width="100%" height="100%" result="dropShadow"></feDropShadow>
</filter></defs><g stroke-linecap="round"><path d="M644 448.99999071204144C644 597.0369472337806 537.0369565217392 717.043468972911 389 717.043468972911C240.9636956521739 717.043468972911 134 597.0369472337806 134 448.99999071204144C134 300.9636863642154 240.9636956521739 180.95651245117188 389 180.95651245117188C537.0369565217392 180.95651245117188 644 300.9636863642154 644 448.99999071204144Z " fill="#c4a200" opacity="0.41" filter="url(#ccclaymoji-blur)"></path><circle r="255" cx="400" cy="400" fill="hsl(50, 98%, 50%)"></circle><circle r="255" cx="400" cy="400" fill="url(#ccclaymoji-grad-dark)"></circle><circle r="255" cx="400" cy="400" fill="url(#ccclaymoji-grad-light)"></circle><path d="M234.5 307.25Q287.5 354.25 345.5 307.25 " stroke-width="19" stroke="black" fill="none" filter="url(#eye-shadow)"></path><path d="M234.5 307.25Q287.5 354.25 345.5 307.25 " stroke-width="6.333333333333333" stroke="url(#eye-light)" fill="none" filter="url(#inner-blur)"></path><path d="M442.5 309.25Q501.5 360.25 553.5 309.25 " stroke-width="19" stroke="black" fill="none" filter="url(#eye-shadow)"></path><path d="M442.5 309.25Q501.5 360.25 553.5 309.25 " stroke-width="6.333333333333333" stroke="url(#eye-light)" fill="none" filter="url(#inner-blur)"></path><path d="M347.5 409.25Q397.5 440.25 452.5 409.25 " stroke-width="19" stroke="hsla(3, 99%, 41%, 1.00)" fill="none" filter="url(#mouth-shadow)"></path><path d="M347.5 409.25Q397.5 440.25 452.5 409.25 " stroke-width="6.333333333333333" stroke="url(#mouth-light)" fill="none" filter="url(#inner-blur)"></path></g></svg>